<?xml version="1.0" encoding="utf-8"?>
<!-- Generator: Avocode 2.5.3 - http://avocode.com -->
<svg height="19" width="21" xmlns:xlink="http://www.w3.org/1999/xlink" xmlns="http://www.w3.org/2000/svg" viewBox="0 0 21 19">
    <path fill="#999999" fill-rule="evenodd" d="M 17.64 5.85 L 17.64 8.35 Z L 15.99 8.35 Z L 15.99 5.85 Z L 13.5 5.85 Z L 13.5 4.17 Z L 15.99 4.17 Z L 15.99 1.63 Z L 17.64 1.63 Z L 17.64 4.17 Z L 20.13 4.17 Z L 20.13 5.85 Z L 17.64 5.85 Z Z M 9.35 1.67 C 10.54 1.67 11.06 3.39 11.06 4.82 C 11.06 6.01 10.51 6.91 9.57 7.65 C 8.67 8.36 8.49 8.66 8.49 9.26 C 8.49 9.78 9.47 10.66 9.98 11.03 C 11.46 12.08 11.82 13.06 11.82 14.7 C 11.82 16.75 9.98 18.34 6.41 18.34 C 3.28 18.34 0.2 17.19 0.2 15.15 C 0.2 13.07 3.05 11.39 6.18 11.39 C 6.52 11.39 6.83 11.38 7.15 11.38 C 6.73 10.96 6.39 10.46 6.39 9.83 C 6.39 9.45 6.51 9.11 6.68 8.79 C 6.5 8.81 6.33 8.85 6.15 8.85 C 3.58 8.85 1.86 7.1 1.86 4.82 C 1.86 2.59 4.24 0.84 6.76 0.84 C 8.17 0.84 12.4 0.84 12.4 0.84 L 11.14 1.67 Z L 9.35 1.67 Z Z M 6.77 11.91 C 4.61 11.88 2.68 13.23 2.68 14.85 C 2.68 16.5 4.24 17.43 6.4 17.43 C 9.44 17.43 10.29 16.58 10.29 14.93 C 10.29 14.73 10.27 14.54 10.22 14.35 C 9.99 13.42 9.35 12.95 8.18 12.13 C 7.75 11.99 7.28 11.91 6.77 11.91 Z M 9.14 4.8 C 8.89 2.89 7.51 1.35 6.06 1.31 C 4.61 1.26 3.64 2.73 3.89 4.64 C 4.14 6.56 5.51 8.15 6.97 8.19 C 8.42 8.23 9.39 6.72 9.14 4.8 Z" />
</svg>