<?xml version="1.0" encoding="utf-8"?>
<!-- Generator: Avocode 2.5.3 - http://avocode.com -->
<svg height="20" width="21" xmlns:xlink="http://www.w3.org/1999/xlink" xmlns="http://www.w3.org/2000/svg" viewBox="0 0 21 20">
    <path fill="#999999" fill-rule="evenodd" d="M 20.3 19.99 L 16.65 19.99 Z C 16.65 19.91 16.66 19.84 16.66 19.76 C 16.66 10.99 9.39 3.74 0.59 3.74 C 0.54 3.74 0.49 3.75 0.44 3.75 L 0.44 0.03 Z C 0.49 0.03 0.54 0.02 0.59 0.02 C 11.44 0.02 20.31 8.95 20.31 19.76 C 20.31 19.84 20.3 19.91 20.3 19.99 Z M 3.34 14.18 C 4.94 14.18 6.24 15.48 6.24 17.07 C 6.24 18.67 4.94 19.96 3.34 19.96 C 1.74 19.96 0.44 18.67 0.44 17.07 C 0.44 15.48 1.74 14.18 3.34 14.18 Z M 0.59 10.38 C 0.54 10.38 0.49 10.39 0.44 10.39 L 0.44 6.7 Z C 0.49 6.7 0.54 6.69 0.59 6.69 C 7.74 6.69 13.68 12.64 13.68 19.76 C 13.68 19.84 13.67 19.91 13.66 19.99 L 9.96 19.99 Z C 9.96 19.91 9.98 19.84 9.98 19.76 C 9.98 14.67 5.69 10.38 0.59 10.38 Z" />
</svg>